<svg id="Capa_1" enable-background="new 0 0 512 512" height="512" viewBox="0 0 512 512" width="512" xmlns="http://www.w3.org/2000/svg"><g><path d="m130 256c0-62.911-22.693-120.522-60.339-165.093-2.64-3.126-2.563-7.735.248-10.708 46.96-49.693 113.608-80.583 187.466-80.195 141.388.742 254.864 115.05 254.625 256.439-.123 72.564-30.436 138.046-79.05 184.557h-277.248c-27.409-38.173-39.61-87.243-30.173-137.113 2.935-15.513 4.471-31.521 4.471-47.887z" fill="#9773bd"/><path d="m210 65v110c0 2.761-2.239 5-5 5h-20v42.5c0 4.142-3.358 7.5-7.5 7.5s-7.5-3.358-7.5-7.5v-195c0-4.142 3.358-7.5 7.5-7.5s7.5 3.358 7.5 7.5v32.5h20c2.761 0 5 2.239 5 5zm283.391 95h-8.391c-2.761 0-5 2.239-5 5v25h-20v-65c0-2.761-2.239-5-5-5h-20c-2.761 0-5 2.239-5 5v15h-30v-45c0-2.761-2.239-5-5-5h-20v-42.5c0-4.142-3.358-7.5-7.5-7.5s-7.5 3.358-7.5 7.5v42.5h-20v-55c0-2.761-2.239-5-5-5h-30c-2.761 0-5 2.239-5 5v105h-5c-2.761 0-5 2.239-5 5v140c0 2.761 2.239 5 5 5h95v45c0 2.761 2.239 5 5 5h102.9c9.136-26.313 14.1-54.577 14.1-84 0-33.949-6.608-66.354-18.609-96zm-228.391-100h-30c-2.761 0-5 2.239-5 5v110c0 2.761 2.239 5 5 5h30c2.761 0 5-2.239 5-5v-110c0-2.761-2.239-5-5-5z" fill="#754ca0"/><path d="m450 400h-377.925c-18.354 0-35.169-10.246-43.602-26.549-18.196-35.178-28.473-75.114-28.473-117.451 0-68.173 26.648-130.123 70.096-176h146.379c34.066 0 66.526 14.479 89.286 39.825l84.24 93.813 59.999 36.362z" fill="#ffcd71"/><path d="m492 400h-271c-88.365 0-160-71.634-160-160 0-88.365 71.634-160 160-160h57.475c34.066 0 66.526 14.478 89.286 39.825l56.183 62.567c18.603 20.717 40.159 38.58 63.971 53.011 14.952 9.062 24.085 25.276 24.085 42.76v101.837c0 11.046-8.954 20-20 20z" fill="#fff68e"/><path d="m270 400h-20v-180h20zm200-99c0 6.075 4.925 11 11 11h31v-22h-31c-6.075 0-11 4.925-11 11zm42 43h-31c-6.075 0-11-4.925-11-11s4.925-11 11-11h31z" fill="#ffcd71"/><path d="m402.498 211.748c4.827 5.31 7.502 12.229 7.502 19.405 0 15.932-12.915 28.847-28.847 28.847h-132.306c-15.932 0-28.847-12.915-28.847-28.847v-92.305c0-15.933 12.915-28.848 28.847-28.848h34.61c16.905 0 33.025 7.131 44.396 19.64z" fill="#60c8dd"/><path d="m402.498 211.748c4.827 5.31 7.502 12.229 7.502 19.405 0 14.321-10.436 26.205-24.118 28.462-49.237-35.605-85.197-88.328-99.309-149.533 15.758.818 30.611 7.821 41.282 19.559z" fill="#7cd2e3"/><path d="m278.847 260h-30c-15.932 0-28.847-12.915-28.847-28.847v-92.305c0-15.933 12.915-28.848 28.847-28.848h30c-15.932 0-28.847 12.915-28.847 28.847v92.305c0 15.933 12.915 28.848 28.847 28.848z" fill="#2cb3cd"/><path d="m480 400h-180c0-49.706 40.294-90 90-90s90 40.294 90 90zm-370-90c-38.487 0-71.332 24.158-84.197 58.138 5.414 11.094 11.607 21.738 18.507 31.862h155.69c0-49.706-40.294-90-90-90z" fill="#ffb655"/><path d="m512 278.163v11.504h-32.167c-16.477 0-29.833-13.357-29.833-29.833 0-16.317 13.1-29.574 29.356-29.829 2.819 1.849 5.672 3.65 8.559 5.399 14.952 9.061 24.085 25.275 24.085 42.759z" fill="#fffac1"/><path d="m180 229c0 4.143-3.358 7.5-7.5 7.5h-146.893l22.552 22.552c2.929 2.93 2.929 7.678 0 10.607-1.464 1.464-3.384 2.196-5.303 2.196s-3.839-.732-5.303-2.196l-35.356-35.355c-2.929-2.93-2.929-7.678 0-10.607l35.355-35.355c2.929-2.928 7.678-2.928 10.606 0 2.929 2.93 2.929 7.678 0 10.607l-22.551 22.551h146.893c4.142 0 7.5 3.357 7.5 7.5z" fill="#f44545"/><path d="m177.803 153.659-35.355 35.355c-1.464 1.464-3.384 2.196-5.303 2.196s-3.839-.732-5.303-2.196c-2.929-2.93-2.929-7.678 0-10.607l22.552-22.552h-146.894c-4.142 0-7.5-3.357-7.5-7.5s3.358-7.5 7.5-7.5h146.893l-22.552-22.552c-2.929-2.93-2.929-7.678 0-10.607 2.929-2.928 7.678-2.928 10.606 0l35.355 35.355c2.93 2.93 2.93 7.678.001 10.608z" fill="#533672"/><path d="m443.778 430c-43.796 47.242-105.2 77.928-173.777 81.624-4.635.25-86.022-81.624-34.606-81.624z" fill="#b9c3cd"/><path d="m460 400c0 38.66-31.34 70-70 70s-70-31.34-70-70 31.34-70 70-70 70 31.34 70 70zm-347.188-69.945c-37.86-1.482-69.367 27.117-72.547 63.823 11.331 17.692 24.778 33.898 39.985 48.262 37.474 35.395 99.963 9.112 99.75-42.434-.003-.746-.018-1.496-.044-2.247-1.289-36.36-30.791-65.981-67.144-67.404z" fill="#4e5a61"/><path d="m420 400c0 16.569-13.431 30-30 30s-30-13.431-30-30 13.431-30 30-30 30 13.431 30 30z" fill="#b9c3cd"/><path d="m270 385v126.624c-4.635.25-9.303.376-14 .376-51.894 0-100.181-15.441-140.518-41.978-22.14-14.566-35.482-39.282-35.482-65.784v-19.238c0-8.284 6.716-15 15-15h160c8.284 0 15 6.716 15 15z" fill="#ffc14f"/><path d="m110 413.742c0 12.865-15.224 19.632-24.804 11.045-.096-.086-.192-.172-.288-.258-3.131-2.815-4.908-6.836-4.908-11.046v-28.483c0-8.284 6.716-15 15-15h30c-8.284 0-15 6.716-15 15z" fill="#ff9f22"/><path d="m210 409.5v51c0 5.247-4.253 9.5-9.5 9.5h-85.051c-1.818-1.196-3.619-2.415-5.404-3.656-4.72-3.282-7.545-8.659-7.545-14.408v-45.519c0-3.544 2.873-6.417 6.417-6.417h91.583c5.247 0 9.5 4.253 9.5 9.5z" fill="#fff5f5"/><path d="m110 466.312c-10.613-7.381-20.641-15.545-30-24.408v-41.904h30z" fill="#dce6eb"/><path d="m145 427.5v15c0 4.142-3.358 7.5-7.5 7.5s-7.5-3.358-7.5-7.5v-15c0-4.142 3.358-7.5 7.5-7.5s7.5 3.358 7.5 7.5zm-32.5-7.5c-4.142 0-7.5 3.358-7.5 7.5v15c0 4.142 3.358 7.5 7.5 7.5s7.5-3.358 7.5-7.5v-15c0-4.142-3.358-7.5-7.5-7.5zm60 0c-4.142 0-7.5 3.358-7.5 7.5v15c0 4.142 3.358 7.5 7.5 7.5s7.5-3.358 7.5-7.5v-15c0-4.142-3.358-7.5-7.5-7.5z" fill="#c8d2dc"/><path d="m270 470h-70v-70h70c5.523 0 10 4.477 10 10v50c0 5.523-4.477 10-10 10z" fill="#fff04a"/><path d="m243.233 417.757 20.37 30.112c1.753 2.592-.104 6.09-3.233 6.09h-40.74c-3.129 0-4.986-3.498-3.233-6.09l20.37-30.112c1.548-2.288 4.918-2.288 6.466 0z" fill="#dd7d00"/></g></svg>